:FULLY-SPECIFIED
:FORCE-ALL-JOINTS-BE-3DOF
:DEGREES
130
root 9.09515 15.9533 -19.0858 6.04008 7.62345 5.84329
lfemur 20.6825 1.63504 -26.339
ltibia -0.584337 0 0
lfoot -11.9778 -1.3839 0
ltoes -8.75106 0 0
rfemur -42.8602 9.3982 5.43483
rtibia 27.6709 0 0
rfoot -22.4341 -11.9419 0
rtoes -19.1111 0 0
lowerback -8.29562 -4.08587 -6.94317
upperback -1.25997 -4.88858 2.05067
thorax 4.0905 -2.55192 5.44839
lowerneck -19.6651 -5.4287 -13.3091
upperneck 20.7962 -6.30305 11.2451
head 10.7475 -2.65583 5.34303
lclavicle -5.65897e-15 -1.09558e-14 0
lhumerus -31.5457 -22.2698 97.0602
lradius 36.5529 0 0
lwrist 7.11882 0 0
lhand -10.5779 -24.0967 0
lfingers 7.12502 0 0
lthumb 15.4273 5.31147 0
rclavicle -5.65897e-15 -1.09558e-14 0
rhumerus -47.5361 6.08543 -82.5074
rradius 32.3384 0 0
rwrist -18.6764 0 0
rhand -30.464 -21.0023 0
rfingers 7.12502 0 0
rthumb -3.76549 -50.9468 0
131
root 9.06968 15.9476 -18.9184 6.07748 7.77009 5.75308
lfemur 21.3578 1.81742 -25.8738
ltibia -0.830814 0 0
lfoot -10.8603 -1.46789 0
ltoes -9.11523 0 0
rfemur -42.8951 9.05616 5.84124
rtibia 28.2245 0 0
rfoot -21.6982 -11.6008 0
rtoes -19.0369 0 0
lowerback -8.21706 -4.08414 -6.83173
upperback -1.27298 -4.90037 2.0635
thorax 4.02544 -2.55452 5.40375
lowerneck -19.6595 -5.45053 -13.3371
upperneck 20.6559 -6.3308 11.3123
head 10.7035 -2.66256 5.36406
lclavicle -6.25425e-15 -1.14253e-14 0
lhumerus -31.8243 -21.026 96.7577
lradius 35.5369 0 0
lwrist 6.08512 0 0
lhand -10.5549 -24.0282 0
lfingers 7.12502 0 0
lthumb 15.4496 5.37954 0
rclavicle -6.25425e-15 -1.14253e-14 0
rhumerus -47.6275 5.89972 -82.4079
rradius 32.0585 0 0
rwrist -18.3866 0 0
rhand -30.3243 -21.0498 0
rfingers 7.12502 0 0
rthumb -3.63053 -50.9958 0
132
root 9.04294 15.9424 -18.7483 6.10798 7.90538 5.64753
lfemur 22.0569 2.01259 -25.3713
ltibia -1.0826 0 0
lfoot -9.63754 -1.53985 0
ltoes -9.49872 0 0
rfemur -42.9143 8.66832 6.31702
rtibia 28.8709 0 0
rfoot -20.8756 -11.2055 0
rtoes -18.9481 0 0
lowerback -8.12914 -4.0771 -6.69932
upperback -1.28386 -4.90748 2.07625
thorax 3.95503 -2.55438 5.34854
lowerneck -19.6559 -5.47217 -13.3635
upperneck 20.5025 -6.3589 11.385
head 10.6553 -2.66855 5.38644
lclavicle -6.75395e-15 -1.20033e-14 0
lhumerus -32.0881 -19.6583 96.3855
lradius 34.424 0 0
lwrist 4.95689 0 0
lhand -10.5507 -23.9565 0
lfingers 7.12502 0 0
lthumb 15.4538 5.45224 0
rclavicle -6.75395e-15 -1.20033e-14 0
rhumerus -47.7196 5.70863 -82.3141
rradius 31.7639 0 0
rwrist -18.0708 0 0
rhand -30.1659 -21.1114 0
rfingers 7.12502 0 0
rthumb -3.47756 -51.0591 0
133
root 9.0151 15.9378 -18.5758 6.13251 8.02991 5.52786
lfemur 22.7667 2.21897 -24.8373
ltibia -1.32736 0 0
lfoot -8.3281 -1.59868 0
ltoes -9.8976 0 0
rfemur -42.9164 8.24128 6.85432
rtibia 29.5952 0 0
rfoot -19.9803 -10.7628 0
rtoes -18.8463 0 0
lowerback -8.03291 -4.0649 -6.54803
upperback -1.29282 -4.90984 2.08911
thorax 3.87986 -2.55151 5.28401
lowerneck -19.6537 -5.49383 -13.3886
upperneck 20.3373 -6.38758 11.4628
head 10.6034 -2.674 5.41005
lclavicle -7.16425e-15 -1.26759e-14 0
lhumerus -32.3394 -18.1886 95.9544
lradius 33.2314 0 0
lwrist 3.75256 0 0
lhand -10.5618 -23.8817 0
lfingers 7.12502 0 0
lthumb 15.4431 5.52903 0
rclavicle -7.16425e-15 -1.26759e-14 0
rhumerus -47.811 5.51489 -82.2257
rradius 31.4589 0 0
rwrist -17.7341 0 0
rhand -29.9919 -21.1858 0
rfingers 7.12502 0 0
rthumb -3.30951 -51.1355 0
